<svg width="881" height="215" viewBox="0 0 881 215" fill="none" xmlns="http://www.w3.org/2000/svg">
<path d="M37 30.7C37 30.7 52 30.4 66.9 30.2C81.8 29.9 96.7 29.7 96.7 29.7L96.9 0.699997C96.9 0.699997 90.9 0.699997 81.9 0.699997C72.9 0.799997 60.9 0.799994 48.9 0.899994C36.9 0.899994 24.9 1 15.9 1C6.89999 1.1 0.899994 1.10001 0.899994 1.10001C0.899994 1.10001 0.799997 14.4 0.699997 34.2C0.699997 44.2 0.600006 55.8 0.600006 68.2C0.500006 80.6 0.499994 93.9 0.399994 107.2C0.399994 120.4 0.300003 133.7 0.300003 146.1C0.200003 158.5 0.199997 170.1 0.199997 180.1C0.0999969 200 0 213.2 0 213.2L36.2 209.4C36.2 209.4 36.3 187.9 36.4 166.3C36.5 144.8 36.6 123.3 36.6 123.3L83.5 120.6L83.6 91.4L36.7 93.5L37 30.7ZM113.4 202.3L149.8 199.5C149.8 199.5 149.8 187.1 149.9 168.4C150 159.1 150 148.2 150.1 136.6C150.1 124.9 150.2 112.5 150.2 100C150.3 87.6 150.4 75.1 150.4 63.5C150.5 51.8 150.5 40.9 150.6 31.6C150.6 12.9 150.7 0.5 150.7 0.5L114.4 0.600006L113.4 202.3ZM176.2 197.7C176.2 197.7 182.2 197.3 191.2 196.8C200.2 196.2 212.3 195.5 224.3 194.9C236.3 194.2 248.4 193.6 257.4 193.2C266.4 192.8 272.5 192.6 272.5 192.6V165.1C272.5 165.1 257.6 165.6 242.6 166.3C227.6 166.9 212.7 167.6 212.7 167.6C212.7 167.6 212.7 157.2 212.8 141.5C212.8 133.6 212.8 124.5 212.9 114.7C212.9 104.9 213 94.4 213 84C213.1 73.5 213.1 63.1 213.1 53.3C213.2 43.5 213.2 34.3 213.2 26.5C213.3 10.8 213.4 0.300003 213.4 0.300003L177 0.399994L176.2 197.7ZM339.2 0.100006C339.2 0.100006 326.6 0.100006 313.9 0.100006C301.3 0.100006 288.7 0.199997 288.7 0.199997C288.7 0.199997 288.6 12.2 288.6 30.1C288.6 39.1 288.5 49.6 288.5 60.9C288.5 72.1 288.4 84.1 288.4 96.1C288.4 108.1 288.3 120 288.3 131.3C288.3 142.5 288.2 153 288.2 162C288.1 180 288.1 192 288.1 192L319.9 190.9C319.9 190.9 319.9 182.5 320 169.8C320 163.5 320 156.1 320 148.2C320 140.3 320 131.9 320.1 123.5C320.1 115 320.1 106.6 320.1 98.7C320.1 90.8 320.2 83.4 320.2 77.1C320.2 64.4 320.2 56 320.2 56C320.2 56 321.9 64.4 324.4 77C325.7 83.3 327.1 90.7 328.7 98.6C330.3 106.4 332 114.8 333.6 123.2C335.3 131.6 337 140 338.6 147.8C340.1 155.7 341.6 163 342.9 169.3C345.4 181.8 347.1 190.2 347.1 190.2L381.5 189.6C381.5 189.6 383.1 181.1 385.5 168.3C386.7 161.9 388.1 154.5 389.5 146.5C391 138.5 392.6 130 394.2 121.5C395.8 113 397.3 104.5 398.8 96.6C400.3 88.6 401.7 81.2 402.9 74.8C405.2 62.1 406.8 53.6 406.8 53.6C406.8 53.6 406.8 62.1 406.8 74.8C406.8 81.2 406.8 88.6 406.8 96.5C406.8 104.5 406.8 113 406.8 121.5C406.8 129.9 406.8 138.4 406.7 146.4C406.7 154.3 406.7 161.8 406.7 168.1C406.7 180.8 406.7 189.3 406.7 189.3L441.2 189.2C441.2 189.2 441.2 177.4 441.2 159.7C441.2 150.8 441.2 140.4 441.2 129.4C441.2 118.3 441.2 106.5 441.2 94.6C441.2 82.8 441.2 71 441.2 59.9C441.2 48.8 441.2 38.5 441.2 29.6C441.2 11.9 441.2 0 441.2 0C441.2 0 428.5 0 415.9 0C403.3 0 390.7 0.100006 390.7 0.100006C390.7 0.100006 389.1 8.50001 386.8 21.1C385.6 27.4 384.2 34.7 382.8 42.6C381.3 50.5 379.8 58.9 378.2 67.4C376.6 75.8 375.1 84.2 373.6 92.1C372.2 100 370.8 107.4 369.6 113.7C367.3 126.4 365.7 134.8 365.7 134.8L339.2 0.100006ZM504 27.2C504 27.2 518.9 27.2 533.8 27.3C548.8 27.4 563.7 27.5 563.7 27.5V0.100006C563.7 0.100006 557.6 0.100006 548.6 0.100006C539.6 0.100006 527.6 0.100006 515.6 0.100006C503.6 0.100006 491.6 0.100006 482.6 0.100006C473.6 0.100006 467.6 0.100006 467.6 0.100006C467.6 0.100006 467.6 11.9 467.6 29.6C467.6 38.5 467.6 48.9 467.6 60C467.7 71 467.7 82.9 467.7 94.7C467.7 106.5 467.7 118.4 467.7 129.5C467.7 140.5 467.7 150.9 467.7 159.8C467.7 177.5 467.7 189.3 467.7 189.3L504.2 189.8C504.2 189.8 504.2 170.2 504.1 150.6C504.1 131.1 504.1 111.5 504.1 111.5L551.1 112.1L551 84.9L504 84.4V27.2ZM581.8 191.9C581.8 191.9 587.8 192.1 596.9 192.5C605.9 192.8 617.9 193.4 630 193.9C642 194.5 654.1 195.2 663.1 195.7C672.1 196.2 678.1 196.6 678.1 196.6L678 168.6C678 168.6 663 167.8 648.1 167.1C633.1 166.4 618.1 165.8 618.1 165.8C618.1 165.8 618.1 155.4 618 139.9C618 132.2 618 123.1 617.9 113.4C617.9 103.7 617.9 93.4 617.8 83C617.8 72.7 617.8 62.3 617.7 52.6C617.7 42.9 617.7 33.9 617.6 26.1C617.6 10.6 617.5 0.199997 617.5 0.199997H581.2L581.8 191.9ZM694 197.6L730.4 200.1C730.4 200.1 730.3 187.6 730.2 168.9C730.2 159.6 730.1 148.6 730.1 137C730 125.3 730 112.8 729.9 100.3C729.8 87.8 729.8 75.4 729.7 63.7C729.7 52 729.6 41.1 729.6 31.7C729.5 13 729.4 0.5 729.4 0.5L693.1 0.399994L694 197.6ZM843.3 1C843.3 1 836.4 20.2 829.5 39.3C822.5 58.2 815.6 77 815.6 77C815.6 77 808.7 57.8 801.7 38.7C794.8 19.7 787.9 0.800003 787.9 0.800003L750.3 0.600006C750.3 0.600006 752.7 6.69999 756.3 15.9C759.9 25.2 764.7 37.5 769.5 49.9C774.3 62.3 779.1 74.8 782.7 84.2C786.3 93.6 788.7 99.9 788.7 99.9C788.7 99.9 786.2 106.4 782.4 116C778.6 125.6 773.6 138.4 768.6 151.1C763.6 163.8 758.6 176.4 754.8 185.9C751.1 195.3 748.6 201.5 748.6 201.5L782.6 204.4C782.6 204.4 784.4 199.5 787.2 192.2C790 184.8 793.7 175 797.4 165.2C801.1 155.3 804.8 145.4 807.6 137.9C810.4 130.5 812.2 125.5 812.2 125.5C812.2 125.5 814.1 130.7 816.9 138.6C819.7 146.4 823.5 156.9 827.2 167.5C831 178.1 834.7 188.7 837.5 196.7C840.4 204.7 842.2 210.1 842.2 210.1L880.4 214.2C880.4 214.2 877.9 207.1 874 196.4C870.2 185.8 865.1 171.7 860 157.7C854.8 143.8 849.7 129.9 845.9 119.6C842 109.3 839.5 102.4 839.5 102.4C839.5 102.4 841.8 96.2 845.3 86.8C848.8 77.4 853.5 64.9 858.2 52.3C862.9 39.6 867.6 26.8 871.1 17.2C874.6 7.6 877 1.2 877 1.2L843.3 1Z" fill="#E50914"/>
</svg>
